# xmcd CD database file generated by OrangeCD 4.2
#
# Track frame offsets:
#	150
#	46865
#	105667
#	155045
#	228547
#	240575
#
# Disc length: 3331 seconds
#
# Revision: 2
# Processed by: cddbd v1.4PL0 Copyright (c) Steve Scherf et al.
# Submitted via: OrangeCD 4.2
#
DISCID=440d0106
DTITLE=Prince - Orange - Small Club 1988 (Part2)
DYEAR=1900
DGENRE=Blues
TTITLE0=Don't Care
TTITLE1=Forever in My Life
TTITLE2=Still Will Stand All Time
TTITLE3=I'll Take U There I
TTITLE4=I'll Take U There II
TTITLE5=R.A.D.E
EXTD=
EXTT0=
EXTT1=
EXTT2=
EXTT3=
EXTT4=
EXTT5=
PLAYORDER=
